<svg version="1.1" viewBox="0.0 0.0 702.3149606299213 682.8713910761155" fill="none" stroke="none" stroke-linecap="square" stroke-miterlimit="10" xmlns:xlink="http://www.w3.org/1999/xlink" xmlns="http://www.w3.org/2000/svg"><clipPath id="p.0"><path d="m0 0l702.31494 0l0 682.8714l-702.31494 0l0 -682.8714z" clip-rule="nonzero"/></clipPath><g clip-path="url(#p.0)"><path fill="#000000" fill-opacity="0.0" d="m0 0l702.31494 0l0 682.8714l-702.31494 0z" fill-rule="evenodd"/><path fill="#000000" fill-opacity="0.0" d="m130.15749 372.8189l0 0c0 -125.251236 110.33536 -226.78741 246.44093 -226.78741l0 0c136.10556 0 246.44095 101.53618 246.44095 226.78741l0 0c0 125.25122 -110.33539 226.78741 -246.44095 226.78741l0 0c-136.10558 0 -246.44093 -101.536194 -246.44093 -226.78741z" fill-rule="evenodd"/><path stroke="#e7b53b" stroke-width="24.0" stroke-linejoin="round" stroke-linecap="butt" d="m130.15749 372.8189l0 0c0 -125.251236 110.33536 -226.78741 246.44093 -226.78741l0 0c136.10556 0 246.44095 101.53618 246.44095 226.78741l0 0c0 125.25122 -110.33539 226.78741 -246.44095 226.78741l0 0c-136.10558 0 -246.44093 -101.536194 -246.44093 -226.78741z" fill-rule="evenodd"/><path fill="#000000" fill-opacity="0.0" d="m-34.36693 321.12854c0.6679306 -19.455719 18.67789 -35.35959 47.02325 -41.524384c28.34536 -6.1647644 62.550335 -1.6170044 89.30776 11.874023c26.757416 13.491028 41.84224 33.795044 39.38585 53.01297l0 0l0 0c2.4563904 -19.217926 -12.628433 -39.521942 -39.38585 -53.01297c-26.757423 -13.491028 -60.9624 -18.038788 -89.30776 -11.874023c-28.34536 6.164795 -46.35532 22.068665 -47.02325 41.524384z" fill-rule="evenodd"/><path stroke="#e7b53b" stroke-width="24.0" stroke-linejoin="round" stroke-linecap="butt" d="m-34.36693 321.12854c0.6679306 -19.455719 18.67789 -35.35959 47.02325 -41.524384c28.34536 -6.1647644 62.550335 -1.6170044 89.30776 11.874023c26.757416 13.491028 41.84224 33.795044 39.38585 53.01297l0 0l0 0c2.4563904 -19.217926 -12.628433 -39.521942 -39.38585 -53.01297c-26.757423 -13.491028 -60.9624 -18.038788 -89.30776 -11.874023c-28.34536 6.164795 -46.35532 22.068665 -47.02325 41.524384z" fill-rule="evenodd"/><path fill="#000000" fill-opacity="0.0" d="m150.61942 373.39108l0 0c0 -114.170746 101.59964 -206.72441 226.92914 -206.72441l0 0c125.3295 0 226.92911 92.553665 226.92911 206.72441l0 0c0 114.170746 -101.59961 206.7244 -226.92911 206.7244l0 0c-125.3295 0 -226.92914 -92.55365 -226.92914 -206.7244z" fill-rule="evenodd"/><path stroke="#e7b53b" stroke-width="24.0" stroke-linejoin="round" stroke-linecap="butt" d="m150.61942 373.39108l0 0c0 -114.170746 101.59964 -206.72441 226.92914 -206.72441l0 0c125.3295 0 226.92911 92.553665 226.92911 206.72441l0 0c0 114.170746 -101.59961 206.7244 -226.92911 206.7244l0 0c-125.3295 0 -226.92914 -92.55365 -226.92914 -206.7244z" fill-rule="evenodd"/><path fill="#000000" fill-opacity="0.0" d="m212.89764 372.8189l0 0c0 -86.147736 73.29132 -155.98427 163.70078 -155.98427l0 0c43.41617 0 85.05408 16.434006 115.75394 45.68672c30.69983 29.252747 47.94684 68.92795 47.94684 110.29755l0 0c0 86.147705 -73.29132 155.98425 -163.70078 155.98425l0 0c-90.409454 0 -163.70078 -69.83655 -163.70078 -155.98425z" fill-rule="evenodd"/><path stroke="#003366" stroke-width="4.0" stroke-linejoin="round" stroke-linecap="butt" d="m212.89764 372.8189l0 0c0 -86.147736 73.29132 -155.98427 163.70078 -155.98427l0 0c43.41617 0 85.05408 16.434006 115.75394 45.68672c30.69983 29.252747 47.94684 68.92795 47.94684 110.29755l0 0c0 86.147705 -73.29132 155.98425 -163.70078 155.98425l0 0c-90.409454 0 -163.70078 -69.83655 -163.70078 -155.98425z" fill-rule="evenodd"/><path fill="#003366" d="m478.41235 221.15344l29.469696 21.318253l3.749054 43.399673l-83.46457 -60.37796z" fill-rule="evenodd"/><path stroke="#003366" stroke-width="1.0" stroke-linejoin="round" stroke-linecap="butt" d="m478.41235 221.15344l29.469696 21.318253l3.749054 43.399673l-83.46457 -60.37796z" fill-rule="evenodd"/><path fill="#e7b53b" d="m375.6081 133.60905l272.02106 2.8559113l14.694702 49.917923l-22.070496 40.105316l-7.586487 30.602676l-4.5907593 75.62207l-78.04712 -116.09427z" fill-rule="evenodd"/><path fill="#e7b53b" d="m1002.8819 413.58005l-61.729675 -39.50656" fill-rule="evenodd"/><path fill="#000000" fill-opacity="0.0" d="m141.14961 558.64307l507.937 0l0 107.55902l-507.937 0z" fill-rule="evenodd"/><path fill="#000000" d="m181.43086 645.2399q-6.078125 0 -11.125 -2.078125q-5.03125 -2.078125 -8.71875 -5.953125q-3.671875 -3.890625 -5.71875 -9.203125q-2.03125 -5.328125 -2.03125 -11.640625q0 -6.078125 2.15625 -11.28125q2.15625 -5.203125 6.0 -9.125q3.84375 -3.921875 8.953125 -6.078125q5.125 -2.15625 11.125 -2.15625q4.078125 0 7.921875 1.203125q3.84375 1.203125 7.03125 3.328125q3.203125 2.109375 5.359375 4.90625l-6.640625 7.28125q-2.078125 -2.15625 -4.28125 -3.640625q-2.1875 -1.484375 -4.546875 -2.234375q-2.359375 -0.765625 -4.84375 -0.765625q-3.6875 0 -6.921875 1.359375q-3.234375 1.359375 -5.59375 3.84375q-2.359375 2.484375 -3.734375 5.890625q-1.359375 3.390625 -1.359375 7.546875q0 4.234375 1.3125 7.6875q1.328125 3.4375 3.765625 5.921875q2.453125 2.46875 5.84375 3.796875q3.40625 1.3125 7.484375 1.3125q2.640625 0 5.109375 -0.71875q2.484375 -0.71875 4.609375 -2.03125q2.125 -1.328125 3.875 -3.09375l5.125 8.25q-1.921875 2.15625 -5.125 3.921875q-3.1875 1.75 -7.15625 2.75q-3.953125 1.0 -7.875 1.0zm43.844955 0q-4.5625 0 -7.921875 -2.03125q-3.359375 -2.046875 -5.125 -5.84375q-1.765625 -3.796875 -1.765625 -9.078125l0 -26.0l9.84375 0l0 23.921875q0 3.359375 1.03125 5.71875q1.046875 2.359375 3.046875 3.640625q2.0 1.28125 4.796875 1.28125q2.09375 0 3.8125 -0.671875q1.71875 -0.6875 3.0 -1.921875q1.28125 -1.25 2.0 -2.96875q0.71875 -1.71875 0.71875 -3.71875l0 -25.28125l9.84375 0l0 42.15625l-9.609375 0l-0.15625 -8.796875l1.765625 -0.96875q-0.96875 3.046875 -3.25 5.40625q-2.28125 2.359375 -5.40625 3.765625q-3.109375 1.390625 -6.625 1.390625zm48.87744 0q-5.609375 0 -10.046875 -1.875q-4.4375 -1.875 -7.234375 -5.40625l6.390625 -5.515625q2.40625 2.71875 5.359375 3.921875q2.96875 1.203125 6.25 1.203125q1.359375 0 2.4375 -0.3125q1.078125 -0.328125 1.875 -0.96875q0.8125 -0.640625 1.25 -1.484375q0.4375 -0.84375 0.4375 -1.875q0 -1.921875 -1.4375 -3.046875q-0.8125 -0.5625 -2.53125 -1.203125q-1.71875 -0.640625 -4.4375 -1.28125q-4.3125 -1.109375 -7.203125 -2.59375q-2.875 -1.484375 -4.46875 -3.3125q-1.359375 -1.53125 -2.046875 -3.4375q-0.671875 -1.921875 -0.671875 -4.171875q0 -2.796875 1.234375 -5.078125q1.234375 -2.28125 3.390625 -3.953125q2.171875 -1.6875 5.046875 -2.5625q2.875 -0.890625 6.0 -0.890625q3.203125 0 6.203125 0.8125q3.0 0.796875 5.59375 2.28125q2.609375 1.46875 4.453125 3.546875l-5.453125 6.0q-1.515625 -1.4375 -3.3125 -2.546875q-1.796875 -1.125 -3.640625 -1.796875q-1.84375 -0.6875 -3.4375 -0.6875q-1.53125 0 -2.734375 0.28125q-1.1875 0.28125 -2.0 0.84375q-0.796875 0.546875 -1.234375 1.390625q-0.4375 0.84375 -0.4375 1.96875q0.078125 0.953125 0.515625 1.796875q0.453125 0.84375 1.25 1.390625q0.875 0.5625 2.625 1.28125q1.765625 0.71875 4.578125 1.359375q3.90625 1.046875 6.546875 2.328125q2.640625 1.28125 4.171875 2.953125q1.515625 1.4375 2.15625 3.359375q0.640625 1.921875 0.640625 4.25q0 3.75 -2.125 6.71875q-2.109375 2.953125 -5.75 4.640625q-3.640625 1.671875 -8.203125 1.671875zm29.268707 -0.796875l0 -52.875l9.84375 0l0 52.875l-9.84375 0zm-8.3125 -33.046875l0 -9.109375l27.359375 0l0 9.109375l-27.359375 0zm53.766846 33.84375q-6.328125 0 -11.296875 -2.828125q-4.953125 -2.84375 -7.828125 -7.796875q-2.875 -4.96875 -2.875 -11.296875q0 -6.3125 2.875 -11.265625q2.875 -4.96875 7.828125 -7.8125q4.96875 -2.84375 11.296875 -2.84375q6.234375 0 11.1875 2.84375q4.96875 2.84375 7.796875 7.8125q2.84375 4.953125 2.84375 11.265625q0 6.328125 -2.84375 11.296875q-2.828125 4.953125 -7.796875 7.796875q-4.953125 2.828125 -11.1875 2.828125zm0 -8.71875q3.4375 0 6.109375 -1.75q2.6875 -1.765625 4.234375 -4.71875q1.5625 -2.96875 1.484375 -6.734375q0.078125 -3.828125 -1.484375 -6.78125q-1.546875 -2.96875 -4.234375 -4.6875q-2.671875 -1.71875 -6.109375 -1.71875q-3.453125 0 -6.21875 1.71875q-2.75 1.71875 -4.265625 4.71875q-1.515625 3.0 -1.515625 6.75q0 3.765625 1.515625 6.734375q1.515625 2.953125 4.265625 4.71875q2.765625 1.75 6.21875 1.75zm30.466827 7.921875l0 -42.15625l9.6875 0l0.15625 8.46875l-1.59375 0.640625q0.71875 -2.078125 2.15625 -3.875q1.4375 -1.796875 3.4375 -3.109375q2.0 -1.328125 4.234375 -2.078125q2.25 -0.765625 4.5625 -0.765625q3.453125 0 6.125 1.078125q2.6875 1.078125 4.484375 3.40625q1.796875 2.3125 2.671875 5.90625l-1.515625 -0.3125l0.640625 -1.28125q0.875 -1.921875 2.46875 -3.484375q1.609375 -1.5625 3.609375 -2.796875q2.0 -1.234375 4.203125 -1.875q2.203125 -0.640625 4.359375 -0.640625q4.796875 0 8.0 1.921875q3.203125 1.90625 4.796875 5.828125q1.609375 3.921875 1.609375 9.6875l0 25.4375l-9.921875 0l0 -24.796875q0 -3.203125 -0.84375 -5.28125q-0.84375 -2.078125 -2.5625 -3.078125q-1.71875 -1.0 -4.28125 -1.0q-2.0 0 -3.796875 0.6875q-1.796875 0.671875 -3.078125 1.921875q-1.28125 1.234375 -2.0 2.828125q-0.71875 1.59375 -0.71875 3.515625l0 25.203125l-9.921875 0l0 -24.875q0 -3.046875 -0.890625 -5.078125q-0.875 -2.046875 -2.5625 -3.125q-1.671875 -1.078125 -4.0625 -1.078125q-2.0 0 -3.765625 0.6875q-1.765625 0.671875 -3.046875 1.875q-1.28125 1.1875 -2.0 2.796875q-0.71875 1.59375 -0.71875 3.515625l0 25.28125l-9.921875 0zm76.80182 0l0 -56.0l36.640625 0l0 9.4375l-26.390625 0l0 37.125l26.71875 0l0 9.4375l-36.96875 0zm4.796875 -24.0l0 -9.28125l27.765625 0l0 9.28125l-27.765625 0zm49.0437 42.40625l8.96875 -20.71875l0.078125 6.546875l-20.796875 -46.390625l11.359375 0l11.59375 27.515625q0.5625 1.046875 1.125 2.765625q0.5625 1.71875 0.953125 3.390625l-2.0 0.640625q0.5625 -1.515625 1.203125 -3.234375q0.640625 -1.71875 1.203125 -3.5625l9.921875 -27.515625l11.4375 0l-17.609375 42.15625l-7.1875 18.40625l-10.25 0zm60.159363 -17.609375q-6.640625 0 -11.71875 -2.796875q-5.078125 -2.796875 -7.921875 -7.640625q-2.828125 -4.84375 -2.828125 -11.078125q0 -4.96875 1.59375 -9.046875q1.59375 -4.078125 4.4375 -7.078125q2.84375 -3.0 6.796875 -4.640625q3.96875 -1.640625 8.6875 -1.640625q4.15625 0 7.75 1.609375q3.609375 1.59375 6.25 4.359375q2.640625 2.75 4.03125 6.5625q1.40625 3.796875 1.328125 8.28125l-0.078125 3.4375l-34.15625 0l-1.84375 -6.71875l27.75 0l-1.28125 1.359375l0 -1.765625q-0.234375 -2.484375 -1.59375 -4.359375q-1.359375 -1.875 -3.484375 -2.953125q-2.109375 -1.09375 -4.671875 -1.09375q-3.921875 0 -6.609375 1.53125q-2.671875 1.515625 -4.03125 4.359375q-1.359375 2.828125 -1.359375 7.078125q0 4.078125 1.71875 7.125q1.71875 3.03125 4.875 4.671875q3.15625 1.640625 7.40625 1.640625q2.953125 0 5.4375 -0.953125q2.484375 -0.96875 5.359375 -3.453125l4.875 6.8125q-2.15625 2.0 -4.921875 3.40625q-2.75 1.390625 -5.796875 2.1875q-3.03125 0.796875 -6.0 0.796875zm41.20807 0q-5.609375 0 -10.046875 -1.875q-4.4375 -1.875 -7.234375 -5.40625l6.390625 -5.515625q2.40625 2.71875 5.359375 3.921875q2.96875 1.203125 6.25 1.203125q1.359375 0 2.4375 -0.3125q1.078125 -0.328125 1.875 -0.96875q0.8125 -0.640625 1.25 -1.484375q0.4375 -0.84375 0.4375 -1.875q0 -1.921875 -1.4375 -3.046875q-0.8125 -0.5625 -2.53125 -1.203125q-1.71875 -0.640625 -4.4375 -1.28125q-4.3125 -1.109375 -7.203125 -2.59375q-2.875 -1.484375 -4.46875 -3.3125q-1.359375 -1.53125 -2.046875 -3.4375q-0.671875 -1.921875 -0.671875 -4.171875q0 -2.796875 1.234375 -5.078125q1.234375 -2.28125 3.390625 -3.953125q2.171875 -1.6875 5.046875 -2.5625q2.875 -0.890625 6.0 -0.890625q3.203125 0 6.203125 0.8125q3.0 0.796875 5.59375 2.28125q2.609375 1.46875 4.453125 3.546875l-5.453125 6.0q-1.515625 -1.4375 -3.3125 -2.546875q-1.796875 -1.125 -3.640625 -1.796875q-1.84375 -0.6875 -3.4375 -0.6875q-1.53125 0 -2.734375 0.28125q-1.1875 0.28125 -2.0 0.84375q-0.796875 0.546875 -1.234375 1.390625q-0.4375 0.84375 -0.4375 1.96875q0.078125 0.953125 0.515625 1.796875q0.453125 0.84375 1.25 1.390625q0.875 0.5625 2.625 1.28125q1.765625 0.71875 4.578125 1.359375q3.90625 1.046875 6.546875 2.328125q2.640625 1.28125 4.171875 2.953125q1.515625 1.4375 2.15625 3.359375q0.640625 1.921875 0.640625 4.25q0 3.75 -2.125 6.71875q-2.109375 2.953125 -5.75 4.640625q-3.640625 1.671875 -8.203125 1.671875z" fill-rule="nonzero"/><path fill="#000000" fill-opacity="0.0" d="m-34.34972 310.35553l0 0c0.9184685 -21.447235 19.099403 -38.892517 47.48989 -45.56842c28.390491 -6.675873 62.523 -1.5317688 89.15655 13.436707c26.63356 14.968506 41.577087 37.405975 39.03357 58.608276l0 0c2.543518 -21.202301 -12.400009 -43.63977 -39.03357 -58.608276c-26.633553 -14.968475 -60.76606 -20.11258 -89.15655 -13.436707c-28.39049 6.6759033 -46.571423 24.121185 -47.48989 45.56842z" fill-rule="evenodd"/><path stroke="#e7b53b" stroke-width="24.0" stroke-linejoin="round" stroke-linecap="butt" d="m-34.34972 310.35553l0 0c0.9184685 -21.447235 19.099403 -38.892517 47.48989 -45.56842c28.390491 -6.675873 62.523 -1.5317688 89.15655 13.436707c26.63356 14.968506 41.577087 37.405975 39.03357 58.608276l0 0c2.543518 -21.202301 -12.400009 -43.63977 -39.03357 -58.608276c-26.633553 -14.968475 -60.76606 -20.11258 -89.15655 -13.436707c-28.39049 6.6759033 -46.571423 24.121185 -47.48989 45.56842z" fill-rule="evenodd"/><path fill="#000000" fill-opacity="0.0" d="m377.54855 498.99738l0 0c-76.53711 0 -138.58267 -56.23587 -138.58267 -125.60629l0 0c0 -33.312866 14.600632 -65.26132 40.589935 -88.81708c25.989288 -23.555756 61.238342 -36.78923 97.99274 -36.78923l0 0c76.53711 0 138.58267 56.235855 138.58267 125.60631l0 0c0 69.37042 -62.045563 125.60629 -138.58267 125.60629z" fill-rule="evenodd"/><path stroke="#003366" stroke-width="4.0" stroke-linejoin="round" stroke-linecap="butt" d="m377.54855 498.99738l0 0c-76.53711 0 -138.58267 -56.23587 -138.58267 -125.60629l0 0c0 -33.312866 14.600632 -65.26132 40.589935 -88.81708c25.989288 -23.555756 61.238342 -36.78923 97.99274 -36.78923l0 0c76.53711 0 138.58267 56.235855 138.58267 125.60631l0 0c0 69.37042 -62.045563 125.60629 -138.58267 125.60629z" fill-rule="evenodd"/></g></svg>