<svg version="1.1" viewBox="0.0 0.0 702.3149606299213 682.8713910761155" fill="none" stroke="none" stroke-linecap="square" stroke-miterlimit="10" xmlns:xlink="http://www.w3.org/1999/xlink" xmlns="http://www.w3.org/2000/svg"><clipPath id="p.0"><path d="m0 0l702.31494 0l0 682.8714l-702.31494 0l0 -682.8714z" clip-rule="nonzero"/></clipPath><g clip-path="url(#p.0)"><path fill="#000000" fill-opacity="0.0" d="m0 0l702.31494 0l0 682.8714l-702.31494 0z" fill-rule="evenodd"/><path fill="#000000" fill-opacity="0.0" d="m130.15749 372.8189l0 0c0 -125.251236 110.33536 -226.78741 246.44093 -226.78741l0 0c136.10556 0 246.44095 101.53618 246.44095 226.78741l0 0c0 125.25122 -110.33539 226.78741 -246.44095 226.78741l0 0c-136.10558 0 -246.44093 -101.536194 -246.44093 -226.78741z" fill-rule="evenodd"/><path stroke="#e7b53b" stroke-width="24.0" stroke-linejoin="round" stroke-linecap="butt" d="m130.15749 372.8189l0 0c0 -125.251236 110.33536 -226.78741 246.44093 -226.78741l0 0c136.10556 0 246.44095 101.53618 246.44095 226.78741l0 0c0 125.25122 -110.33539 226.78741 -246.44095 226.78741l0 0c-136.10558 0 -246.44093 -101.536194 -246.44093 -226.78741z" fill-rule="evenodd"/><path fill="#000000" fill-opacity="0.0" d="m-34.36693 321.12854c0.6679306 -19.455719 18.67789 -35.35959 47.02325 -41.524384c28.34536 -6.1647644 62.550335 -1.6170044 89.30776 11.874023c26.757416 13.491028 41.84224 33.795044 39.38585 53.01297l0 0l0 0c2.4563904 -19.217926 -12.628433 -39.521942 -39.38585 -53.01297c-26.757423 -13.491028 -60.9624 -18.038788 -89.30776 -11.874023c-28.34536 6.164795 -46.35532 22.068665 -47.02325 41.524384z" fill-rule="evenodd"/><path stroke="#e7b53b" stroke-width="24.0" stroke-linejoin="round" stroke-linecap="butt" d="m-34.36693 321.12854c0.6679306 -19.455719 18.67789 -35.35959 47.02325 -41.524384c28.34536 -6.1647644 62.550335 -1.6170044 89.30776 11.874023c26.757416 13.491028 41.84224 33.795044 39.38585 53.01297l0 0l0 0c2.4563904 -19.217926 -12.628433 -39.521942 -39.38585 -53.01297c-26.757423 -13.491028 -60.9624 -18.038788 -89.30776 -11.874023c-28.34536 6.164795 -46.35532 22.068665 -47.02325 41.524384z" fill-rule="evenodd"/><path fill="#000000" fill-opacity="0.0" d="m150.61942 373.39108l0 0c0 -114.170746 101.59964 -206.72441 226.92914 -206.72441l0 0c125.3295 0 226.92911 92.553665 226.92911 206.72441l0 0c0 114.170746 -101.59961 206.7244 -226.92911 206.7244l0 0c-125.3295 0 -226.92914 -92.55365 -226.92914 -206.7244z" fill-rule="evenodd"/><path stroke="#e7b53b" stroke-width="24.0" stroke-linejoin="round" stroke-linecap="butt" d="m150.61942 373.39108l0 0c0 -114.170746 101.59964 -206.72441 226.92914 -206.72441l0 0c125.3295 0 226.92911 92.553665 226.92911 206.72441l0 0c0 114.170746 -101.59961 206.7244 -226.92911 206.7244l0 0c-125.3295 0 -226.92914 -92.55365 -226.92914 -206.7244z" fill-rule="evenodd"/><path fill="#000000" fill-opacity="0.0" d="m212.89764 372.8189l0 0c0 -86.147736 73.29132 -155.98427 163.70078 -155.98427l0 0c43.41617 0 85.05408 16.434006 115.75394 45.68672c30.69983 29.252747 47.94684 68.92795 47.94684 110.29755l0 0c0 86.147705 -73.29132 155.98425 -163.70078 155.98425l0 0c-90.409454 0 -163.70078 -69.83655 -163.70078 -155.98425z" fill-rule="evenodd"/><path stroke="#ffffff" stroke-width="4.0" stroke-linejoin="round" stroke-linecap="butt" d="m212.89764 372.8189l0 0c0 -86.147736 73.29132 -155.98427 163.70078 -155.98427l0 0c43.41617 0 85.05408 16.434006 115.75394 45.68672c30.69983 29.252747 47.94684 68.92795 47.94684 110.29755l0 0c0 86.147705 -73.29132 155.98425 -163.70078 155.98425l0 0c-90.409454 0 -163.70078 -69.83655 -163.70078 -155.98425z" fill-rule="evenodd"/><path fill="#ffffff" d="m478.41235 221.15344l29.469696 21.318253l3.749054 43.399673l-83.46457 -60.37796z" fill-rule="evenodd"/><path stroke="#ffffff" stroke-width="1.0" stroke-linejoin="round" stroke-linecap="butt" d="m478.41235 221.15344l29.469696 21.318253l3.749054 43.399673l-83.46457 -60.37796z" fill-rule="evenodd"/><path fill="#e7b53b" d="m375.6081 133.60905l272.02106 2.8559113l14.694702 49.917923l-22.070496 40.105316l-7.586487 30.602676l-4.5907593 75.62207l-78.04712 -116.09427z" fill-rule="evenodd"/><path fill="#e7b53b" d="m1002.8819 413.58005l-61.729675 -39.50656" fill-rule="evenodd"/><path fill="#000000" fill-opacity="0.0" d="m-34.34972 310.35553l0 0c0.9184685 -21.447235 19.099403 -38.892517 47.48989 -45.56842c28.390491 -6.675873 62.523 -1.5317688 89.15655 13.436707c26.63356 14.968506 41.577087 37.405975 39.03357 58.608276l0 0c2.543518 -21.202301 -12.400009 -43.63977 -39.03357 -58.608276c-26.633553 -14.968475 -60.76606 -20.11258 -89.15655 -13.436707c-28.39049 6.6759033 -46.571423 24.121185 -47.48989 45.56842z" fill-rule="evenodd"/><path stroke="#e7b53b" stroke-width="24.0" stroke-linejoin="round" stroke-linecap="butt" d="m-34.34972 310.35553l0 0c0.9184685 -21.447235 19.099403 -38.892517 47.48989 -45.56842c28.390491 -6.675873 62.523 -1.5317688 89.15655 13.436707c26.63356 14.968506 41.577087 37.405975 39.03357 58.608276l0 0c2.543518 -21.202301 -12.400009 -43.63977 -39.03357 -58.608276c-26.633553 -14.968475 -60.76606 -20.11258 -89.15655 -13.436707c-28.39049 6.6759033 -46.571423 24.121185 -47.48989 45.56842z" fill-rule="evenodd"/><path fill="#000000" fill-opacity="0.0" d="m377.54855 498.99738l0 0c-76.53711 0 -138.58267 -56.23587 -138.58267 -125.60629l0 0c0 -33.312866 14.600632 -65.26132 40.589935 -88.81708c25.989288 -23.555756 61.238342 -36.78923 97.99274 -36.78923l0 0c76.53711 0 138.58267 56.235855 138.58267 125.60631l0 0c0 69.37042 -62.045563 125.60629 -138.58267 125.60629z" fill-rule="evenodd"/><path stroke="#ffffff" stroke-width="4.0" stroke-linejoin="round" stroke-linecap="butt" d="m377.54855 498.99738l0 0c-76.53711 0 -138.58267 -56.23587 -138.58267 -125.60629l0 0c0 -33.312866 14.600632 -65.26132 40.589935 -88.81708c25.989288 -23.555756 61.238342 -36.78923 97.99274 -36.78923l0 0c76.53711 0 138.58267 56.235855 138.58267 125.60631l0 0c0 69.37042 -62.045563 125.60629 -138.58267 125.60629z" fill-rule="evenodd"/></g></svg>